<?xml version="1.0" ?><!DOCTYPE svg  PUBLIC '-//W3C//DTD SVG 1.1//EN'  'http://www.w3.org/Graphics/SVG/1.1/DTD/svg11.dtd'><svg xmlns="http://www.w3.org/2000/svg" xmlns:xlink="http://www.w3.org/1999/xlink" xmlns:serif="http://www.serif.com/" width="100%" height="100%" viewBox="0 0 512 512" version="1.1" xml:space="preserve" style="fill-rule:evenodd;clip-rule:evenodd;stroke-linejoin:round;stroke-miterlimit:2;"><g transform="matrix(1,0,0,1,-1686,0)"><g id="Icons"><path d="M1903.89,39.611L1874.85,39.611C1866.24,39.611 1859.24,46.603 1859.24,55.215L1859.24,60.818L1785.41,60.818C1771.26,60.818 1759.78,72.302 1759.78,86.448L1759.78,475.37C1759.78,489.516 1771.26,501 1785.41,501L2098.59,501C2112.74,501 2124.22,489.516 2124.22,475.37C2124.22,475.37 2124.22,86.448 2124.22,86.448C2124.22,72.302 2112.74,60.818 2098.59,60.818L2024.76,60.818L2024.76,55.215C2024.76,46.603 2017.76,39.611 2009.15,39.611L1980.11,39.611C1975.31,23.091 1960.06,11 1942,11C1923.94,11 1908.69,23.091 1903.89,39.611ZM2024.76,70.818L2024.76,76.421C2024.76,85.032 2017.76,92.024 2009.15,92.024C2009.15,92.024 1874.85,92.024 1874.85,92.024C1866.24,92.024 1859.24,85.032 1859.24,76.421L1859.24,70.818L1785.41,70.818C1776.78,70.818 1769.78,77.821 1769.78,86.448C1769.78,86.448 1769.78,475.37 1769.78,475.37C1769.78,483.996 1776.78,491 1785.41,491C1785.41,491 2098.59,491 2098.59,491C2107.22,491 2114.22,483.996 2114.22,475.37L2114.22,86.448C2114.22,77.821 2107.22,70.818 2098.59,70.818L2024.76,70.818ZM1800,464.5L2084,464.5C2086.76,464.5 2089,462.26 2089,459.5C2089,456.74 2086.76,454.5 2084,454.5L1800,454.5C1797.24,454.5 1795,456.74 1795,459.5C1795,462.26 1797.24,464.5 1800,464.5ZM1800,434.5L2084,434.5C2086.76,434.5 2089,432.26 2089,429.5C2089,426.74 2086.76,424.5 2084,424.5L1800,424.5C1797.24,424.5 1795,426.74 1795,429.5C1795,432.26 1797.24,434.5 1800,434.5ZM1800,404.5L2084,404.5C2086.76,404.5 2089,402.26 2089,399.5C2089,396.74 2086.76,394.5 2084,394.5L1800,394.5C1797.24,394.5 1795,396.74 1795,399.5C1795,402.26 1797.24,404.5 1800,404.5ZM1800,369.5L2084,369.5C2086.76,369.5 2089,367.26 2089,364.5C2089,361.74 2086.76,359.5 2084,359.5L1800,359.5C1797.24,359.5 1795,361.74 1795,364.5C1795,367.26 1797.24,369.5 1800,369.5ZM1800,339.5L2084,339.5C2086.76,339.5 2089,337.26 2089,334.5C2089,331.74 2086.76,329.5 2084,329.5L1800,329.5C1797.24,329.5 1795,331.74 1795,334.5C1795,337.26 1797.24,339.5 1800,339.5ZM1824,309.5L2084,309.5C2086.76,309.5 2089,307.26 2089,304.5C2089,301.74 2086.76,299.5 2084,299.5L1824,299.5C1821.24,299.5 1819,301.74 1819,304.5C1819,307.26 1821.24,309.5 1824,309.5ZM1800,279.5L1937.5,279.5C1940.26,279.5 1942.5,277.26 1942.5,274.5C1942.5,271.74 1940.26,269.5 1937.5,269.5L1800,269.5C1797.24,269.5 1795,271.74 1795,274.5C1795,277.26 1797.24,279.5 1800,279.5ZM2095.34,218.448C2095.34,203.567 2083.26,191.486 2068.38,191.486L1993.33,191.486C1978.44,191.486 1966.36,203.567 1966.36,218.448L1966.36,270.438C1966.36,273.2 1968.6,275.438 1971.36,275.438L2090.34,275.438C2093.11,275.438 2095.34,273.2 2095.34,270.438L2095.34,218.448ZM2068.52,265.438L2085.34,265.438L2085.34,218.448C2085.34,209.087 2077.74,201.486 2068.38,201.486C2068.38,201.486 1993.33,201.486 1993.33,201.486C1983.96,201.486 1976.36,209.087 1976.36,218.448C1976.36,218.448 1976.36,265.438 1976.36,265.438L1993.18,265.438L1993.18,247.362C1993.18,244.603 1995.42,242.362 1998.18,242.362C2000.94,242.362 2003.18,244.603 2003.18,247.362L2003.18,265.438L2058.52,265.438L2058.52,247.362C2058.52,244.603 2060.76,242.362 2063.52,242.362C2066.28,242.362 2068.52,244.603 2068.52,247.362L2068.52,265.438ZM1800,249.5L1937.5,249.5C1940.26,249.5 1942.5,247.26 1942.5,244.5C1942.5,241.74 1940.26,239.5 1937.5,239.5L1800,239.5C1797.24,239.5 1795,241.74 1795,244.5C1795,247.26 1797.24,249.5 1800,249.5ZM1800,219.5L1937.5,219.5C1940.26,219.5 1942.5,217.26 1942.5,214.5C1942.5,211.74 1940.26,209.5 1937.5,209.5L1800,209.5C1797.24,209.5 1795,211.74 1795,214.5C1795,217.26 1797.24,219.5 1800,219.5ZM1800,189.514L1937.5,189.514C1940.26,189.514 1942.5,187.273 1942.5,184.514C1942.5,181.754 1940.26,179.514 1937.5,179.514L1800,179.514C1797.24,179.514 1795,181.754 1795,184.514C1795,187.273 1797.24,189.514 1800,189.514ZM2030.85,102.972C2007.24,102.972 1988.08,122.14 1988.08,145.749C1988.08,169.359 2007.24,188.527 2030.85,188.527C2054.46,188.527 2073.63,169.359 2073.63,145.749C2073.63,122.14 2054.46,102.972 2030.85,102.972ZM2030.85,112.972C2048.94,112.972 2063.63,127.659 2063.63,145.749C2063.63,163.84 2048.94,178.527 2030.85,178.527C2012.76,178.527 1998.08,163.84 1998.08,145.749C1998.08,127.659 2012.76,112.972 2030.85,112.972ZM1800,160.5L1937.5,160.5C1940.26,160.5 1942.5,158.26 1942.5,155.5C1942.5,152.74 1940.26,150.5 1937.5,150.5L1800,150.5C1797.24,150.5 1795,152.74 1795,155.5C1795,158.26 1797.24,160.5 1800,160.5ZM1824,130.5L1937.5,130.5C1940.26,130.5 1942.5,128.26 1942.5,125.5C1942.5,122.74 1940.26,120.5 1937.5,120.5L1824,120.5C1821.24,120.5 1819,122.74 1819,125.5C1819,128.26 1821.24,130.5 1824,130.5ZM1907.78,49.611L1874.85,49.611C1871.76,49.611 1869.24,52.122 1869.24,55.215C1869.24,55.215 1869.24,76.421 1869.24,76.421C1869.24,79.513 1871.76,82.024 1874.85,82.024L2009.15,82.024C2012.25,82.024 2014.76,79.513 2014.76,76.421L2014.76,55.215C2014.76,52.122 2012.25,49.611 2009.15,49.611L1976.22,49.611C1976.16,49.612 1976.11,49.612 1976.06,49.611L1907.94,49.611C1907.89,49.612 1907.84,49.612 1907.78,49.611ZM1969.54,39.611C1965.15,28.705 1954.47,21 1942,21C1929.53,21 1918.85,28.705 1914.46,39.611L1969.54,39.611Z"/></g></g></svg>